<?xml version="1.0" encoding="utf-8"?>
<!-- Svg Vector Icons : http://www.onlinewebfonts.com/icon -->
<!DOCTYPE svg PUBLIC "-//W3C//DTD SVG 1.1//EN" "http://www.w3.org/Graphics/SVG/1.1/DTD/svg11.dtd">
<svg version="1.1" xmlns="http://www.w3.org/2000/svg" xmlns:xlink="http://www.w3.org/1999/xlink" x="0px" y="0px" viewBox="0 0 256 256" enable-background="new 0 0 256 256" xml:space="preserve">
<metadata> Svg Vector Icons : http://www.onlinewebfonts.com/icon </metadata>
<g><g><path fill="#000000" d="M142.1,90.3L204.2,28l-13.4-13.3l-65.6,65.5L87.9,43L74.5,56.3l34.6,34H10v151h236v-151H142.1z M161,222.4H28.9V109.1h132.2L161,222.4L161,222.4z M227.1,222.5h-47.2V109.1h47.2V222.5L227.1,222.5z"/><path fill="#000000" d="M203.5,203.7c5.2,0,9.4-4.3,9.4-9.5c0-5.2-4.2-9.3-9.4-9.3c-5.2,0-9.4,4.2-9.4,9.4C194.1,199.4,198.3,203.7,203.5,203.7z"/></g></g>
</svg>